<svg width="611" height="166" viewBox="0 0 611 166" fill="none" xmlns="http://www.w3.org/2000/svg">
<g filter="url(#filter0_d_82_5)">
<path d="M100.086 33.6484C99.3568 36.3099 98.9922 38.625 98.9922 40.5938C98.9922 41.6146 98.8828 43.2005 98.6641 45.3516C98.4818 47.4661 98.3906 49.0339 98.3906 50.0547C98.3906 53.5182 98.2083 58.6589 97.8438 65.4766C97.4792 72.2943 97.2969 77.4349 97.2969 80.8984C97.2969 83.5599 97.4974 87.5339 97.8984 92.8203C98.2995 98.1068 98.5 102.081 98.5 104.742C98.5 106.747 97.7891 108.443 96.3672 109.828C94.9453 111.214 93.1771 111.906 91.0625 111.906C88.9115 111.906 87.0521 111.214 85.4844 109.828C83.9167 108.479 83.1328 106.82 83.1328 104.852C83.1328 102.19 83.0052 98.1979 82.75 92.875C82.5312 87.5521 82.4219 83.5599 82.4219 80.8984C82.4219 78.8203 82.4583 76.9792 82.5312 75.375C76.8073 75.6302 69.7344 76.5234 61.3125 78.0547C54.3125 79.3307 47.3125 80.625 40.3125 81.9375C40.2396 84.4167 39.9844 88.5547 39.5469 94.3516C39.1823 99.4557 39 103.63 39 106.875C39 108.88 38.2891 110.576 36.8672 111.961C35.4453 113.346 33.6771 114.039 31.5625 114.039C29.4479 114.039 27.6797 113.346 26.2578 111.961C24.8359 110.576 24.125 108.88 24.125 106.875C24.125 103.193 24.4349 97.6875 25.0547 90.3594C25.7109 83.0312 26.0391 77.526 26.0391 73.8438C26.0391 69.1771 26.1484 62.1589 26.3672 52.7891C26.5859 43.3828 26.6953 36.3464 26.6953 31.6797C26.6953 29.6745 27.4062 27.9792 28.8281 26.5938C30.25 25.2083 32.0182 24.5156 34.1328 24.5156C36.2474 24.5156 38.0156 25.2083 39.4375 26.5938C40.8594 27.9792 41.5703 29.6745 41.5703 31.6797C41.5703 34.4505 41.4609 38.625 41.2422 44.2031C41.0599 49.7448 40.9688 53.901 40.9688 56.6719C40.9688 57.5833 40.8411 59.3333 40.5859 61.9219C40.3672 64.3281 40.276 66.1693 40.3125 67.4453L61.3125 63.5078C69.5156 62.0495 76.5885 61.2109 82.5312 60.9922C82.6771 58.5495 82.9141 51.987 83.2422 41.3047C83.3151 38.4974 84.1719 35.2708 85.8125 31.625C87.8542 27.1406 90.1693 24.8984 92.7578 24.8984C94.6901 24.8984 96.4036 25.5365 97.8984 26.8125C99.5026 28.1979 100.305 29.9297 100.305 32.0078C100.305 32.5547 100.232 33.1016 100.086 33.6484ZM132.188 112.727C125.443 112.727 119.646 110.411 114.797 105.781C109.474 100.714 106.685 93.9505 106.43 85.4922C106.174 77.4349 108.38 70.2526 113.047 63.9453C118.589 56.5078 126.299 52.7891 136.18 52.7891C143.471 52.7891 149.268 55.7057 153.57 61.5391C157.435 66.7891 159.367 73.2969 159.367 81.0625C159.367 89.5208 157.107 96.7396 152.586 102.719C147.518 109.391 140.719 112.727 132.188 112.727ZM135.469 67.2266C130.984 67.1901 127.448 69.2318 124.859 73.3516C122.672 76.8151 121.578 80.862 121.578 85.4922C121.578 89.8672 122.818 93.2214 125.297 95.5547C127.266 97.4141 129.562 98.3438 132.188 98.3438C135.359 98.3438 138.112 97.2682 140.445 95.1172C143.107 92.6016 144.529 89.1927 144.711 84.8906C145.185 73.151 142.104 67.263 135.469 67.2266ZM211.703 113.383C207.219 113.383 204.721 111.177 204.211 106.766C203.701 103.01 203.19 99.237 202.68 95.4453C202.133 91.4349 201.859 87.6615 201.859 84.125C201.859 83.1771 201.914 81.5547 202.023 79.2578C202.169 76.9609 202.242 75.3385 202.242 74.3906C202.242 74.1354 202.279 73.4974 202.352 72.4766C202.424 71.4193 202.461 70.5625 202.461 69.9062C202.461 66.8802 201.677 65.3672 200.109 65.3672C196.755 65.3672 193.456 67.3359 190.211 71.2734C187.003 75.1745 184.487 80.1328 182.664 86.1484C182.591 87.3516 182.427 88.9557 182.172 90.9609C181.953 92.6016 181.844 94.2057 181.844 95.7734C181.844 96.7943 181.953 98.3438 182.172 100.422C182.427 102.464 182.555 103.995 182.555 105.016C182.555 107.094 181.826 108.807 180.367 110.156C178.945 111.542 177.141 112.234 174.953 112.234C172.766 112.234 170.961 111.542 169.539 110.156C168.117 108.807 167.406 107.094 167.406 105.016C167.406 103.995 167.297 102.464 167.078 100.422C166.859 98.3438 166.75 96.7943 166.75 95.7734C166.75 92.2734 167.005 87.4062 167.516 81.1719C168.026 74.9375 168.281 70.0703 168.281 66.5703C168.281 65.4766 168.208 63.8542 168.062 61.7031C167.953 59.5156 167.898 57.8932 167.898 56.8359C167.898 54.7943 168.628 53.1172 170.086 51.8047C171.581 50.4557 173.404 49.7812 175.555 49.7812C180.331 49.7812 182.883 52.6432 183.211 58.3672L183.266 58.9688C188.589 53.6094 194.203 50.9297 200.109 50.9297C207 50.9297 211.758 53.8099 214.383 59.5703C216.133 63.4349 217.008 69.2135 217.008 76.9062V80.7891C216.971 82.4661 216.953 83.651 216.953 84.3438C216.953 87.1875 217.336 90.8516 218.102 95.3359C218.904 99.8203 219.305 103.466 219.305 106.273C219.305 108.315 218.576 110.01 217.117 111.359C215.659 112.708 213.854 113.383 211.703 113.383ZM254.797 112.016C246.083 112.016 238.956 109.938 233.414 105.781C227.289 101.188 224.227 94.7161 224.227 86.3672C224.227 77.1432 226.651 69.3411 231.5 62.9609C236.896 55.888 244.169 52.3516 253.32 52.3516C259.664 52.3516 264.932 53.3724 269.125 55.4141C274.63 58.112 277.383 62.3047 277.383 67.9922C277.383 72.0026 275.141 75.5573 270.656 78.6562C268.615 80.0781 264.513 82.1562 258.352 84.8906L239.922 93.0391C241.672 94.9349 243.786 96.3568 246.266 97.3047C248.745 98.2526 251.589 98.7266 254.797 98.7266C259.682 98.7266 263.82 97.724 267.211 95.7188C270.237 93.9323 272.661 93.0391 274.484 93.0391C278.276 93.0391 280.172 94.8802 280.172 98.5625C280.172 102.719 277.128 106.109 271.039 108.734C265.935 110.922 260.521 112.016 254.797 112.016ZM253.32 65.5859C249.93 65.5859 247.031 66.7161 244.625 68.9766C242.219 71.237 240.286 74.6276 238.828 79.1484C242.948 77.362 247.049 75.5938 251.133 73.8438C256.055 71.6198 259.974 69.5599 262.891 67.6641C260.448 66.2786 257.258 65.5859 253.32 65.5859ZM344.266 63.2891C340.292 71.5651 334.003 84.5625 325.398 102.281C320.732 111.797 317.177 119.69 314.734 125.961C313.969 128.221 312.766 131.576 311.125 136.023C309.812 139.451 307.479 141.164 304.125 141.164C302.047 141.164 300.224 140.49 298.656 139.141C297.089 137.792 296.305 136.096 296.305 134.055C296.305 130.664 300.169 120.62 307.898 103.922C303.888 96.0104 297.526 84.362 288.812 68.9766C287.938 67.5911 287.044 66.1875 286.133 64.7656C285.148 63.0885 284.656 61.5573 284.656 60.1719C284.656 58.2031 285.44 56.4714 287.008 54.9766C288.576 53.4818 290.38 52.7344 292.422 52.7344C294.828 52.7344 296.706 53.6276 298.055 55.4141C303.232 62.3047 309.266 72.6771 316.156 86.5312C320.057 77.8906 322.427 72.6771 323.266 70.8906C325.854 65.4583 328.388 60.6823 330.867 56.5625C332.435 53.9375 334.586 52.625 337.32 52.625C339.362 52.625 341.185 53.3177 342.789 54.7031C344.393 56.0885 345.195 57.7839 345.195 59.7891C345.195 60.8464 344.885 62.013 344.266 63.2891ZM375.164 66.2969C373.523 72.2031 371.227 81.1172 368.273 93.0391C367.581 97.1589 366.906 101.26 366.25 105.344C364.755 110.521 362.003 113.109 357.992 113.109C355.477 113.109 353.49 112.253 352.031 110.539C350.792 109.081 350.172 107.349 350.172 105.344C350.172 99.4375 351.43 92.237 353.945 83.7422C357.701 71.0182 359.724 63.9635 360.016 62.5781C361.073 56.9635 362.148 51.349 363.242 45.7344C364.883 38.0052 366.651 32.8646 368.547 30.3125C370.479 27.724 372.904 26.4297 375.82 26.4297C379.138 26.4297 381.581 28.1068 383.148 31.4609C384.607 34.6328 386.174 41.1224 387.852 50.9297C389.456 60.4453 391.844 70.6901 395.016 81.6641C399.172 70.8359 403.036 58.9505 406.609 46.0078L409.672 33.4297C411.641 28.2161 414.685 25.6094 418.805 25.6094C422.779 25.6094 425.732 28.6354 427.664 34.6875C428.466 37.1302 429.323 41.6875 430.234 48.3594C432.349 63.8906 435.01 77.1979 438.219 88.2812C441.464 99.5469 443.086 105.672 443.086 106.656C443.086 108.807 442.229 110.612 440.516 112.07C438.911 113.383 437.107 114.039 435.102 114.039C431.128 114.039 428.174 111.195 426.242 105.508L423.18 92.2734C421.43 85.7109 419.534 76.2865 417.492 64C415.852 68.8854 413.135 76.5599 409.344 87.0234L406.062 97.0859C404.714 101.06 403.31 104.323 401.852 106.875C399.919 110.266 397.221 111.961 393.758 111.961C390.331 111.961 387.706 109.938 385.883 105.891L382.82 95.7188C379.977 86.3854 377.424 76.5781 375.164 66.2969ZM463.156 43.7656C460.823 43.7656 458.799 42.9818 457.086 41.4141C455.372 39.8464 454.516 37.9323 454.516 35.6719C454.516 33.4115 455.372 31.4974 457.086 29.9297C458.799 28.362 460.823 27.5781 463.156 27.5781C465.49 27.5781 467.495 28.362 469.172 29.9297C470.885 31.4974 471.742 33.4115 471.742 35.6719C471.742 37.9323 470.885 39.8464 469.172 41.4141C467.495 42.9818 465.49 43.7656 463.156 43.7656ZM467.805 83.8516C467.805 85.9297 467.859 89.2656 467.969 93.8594C468.115 98.4531 468.188 101.789 468.188 103.867C468.188 105.982 467.477 107.732 466.055 109.117C464.633 110.466 462.828 111.141 460.641 111.141C458.453 111.141 456.648 110.466 455.227 109.117C453.805 107.732 453.094 105.982 453.094 103.867C453.094 101.789 453.021 98.4531 452.875 93.8594C452.766 89.2656 452.711 85.9297 452.711 83.8516C452.711 80.6068 452.893 76.5417 453.258 71.6562C453.622 66.7708 453.805 62.7057 453.805 59.4609C453.805 57.3464 454.516 55.6146 455.938 54.2656C457.359 52.8802 459.164 52.1875 461.352 52.1875C463.539 52.1875 465.344 52.8802 466.766 54.2656C468.188 55.6146 468.898 57.3464 468.898 59.4609C468.898 62.7057 468.716 66.7708 468.352 71.6562C467.987 76.5417 467.805 80.6068 467.805 83.8516ZM525.172 113.383C520.688 113.383 518.19 111.177 517.68 106.766C517.169 103.01 516.659 99.237 516.148 95.4453C515.602 91.4349 515.328 87.6615 515.328 84.125C515.328 83.1771 515.383 81.5547 515.492 79.2578C515.638 76.9609 515.711 75.3385 515.711 74.3906C515.711 74.1354 515.747 73.4974 515.82 72.4766C515.893 71.4193 515.93 70.5625 515.93 69.9062C515.93 66.8802 515.146 65.3672 513.578 65.3672C510.224 65.3672 506.924 67.3359 503.68 71.2734C500.471 75.1745 497.956 80.1328 496.133 86.1484C496.06 87.3516 495.896 88.9557 495.641 90.9609C495.422 92.6016 495.312 94.2057 495.312 95.7734C495.312 96.7943 495.422 98.3438 495.641 100.422C495.896 102.464 496.023 103.995 496.023 105.016C496.023 107.094 495.294 108.807 493.836 110.156C492.414 111.542 490.609 112.234 488.422 112.234C486.234 112.234 484.43 111.542 483.008 110.156C481.586 108.807 480.875 107.094 480.875 105.016C480.875 103.995 480.766 102.464 480.547 100.422C480.328 98.3438 480.219 96.7943 480.219 95.7734C480.219 92.2734 480.474 87.4062 480.984 81.1719C481.495 74.9375 481.75 70.0703 481.75 66.5703C481.75 65.4766 481.677 63.8542 481.531 61.7031C481.422 59.5156 481.367 57.8932 481.367 56.8359C481.367 54.7943 482.096 53.1172 483.555 51.8047C485.049 50.4557 486.872 49.7812 489.023 49.7812C493.799 49.7812 496.352 52.6432 496.68 58.3672L496.734 58.9688C502.057 53.6094 507.672 50.9297 513.578 50.9297C520.469 50.9297 525.227 53.8099 527.852 59.5703C529.602 63.4349 530.477 69.2135 530.477 76.9062V80.7891C530.44 82.4661 530.422 83.651 530.422 84.3438C530.422 87.1875 530.805 90.8516 531.57 95.3359C532.372 99.8203 532.773 103.466 532.773 106.273C532.773 108.315 532.044 110.01 530.586 111.359C529.128 112.708 527.323 113.383 525.172 113.383ZM579.312 65.4766C578.547 65.4766 577.635 65.4583 576.578 65.4219C575.557 65.349 574.664 65.3125 573.898 65.3125C572.404 65.3125 570.672 65.4583 568.703 65.75C569.359 80.4792 569.688 90.1042 569.688 94.625C569.688 95.099 569.706 95.9922 569.742 97.3047C569.779 98.5807 569.797 99.6198 569.797 100.422C569.797 108.807 567.154 113 561.867 113C559.862 113 558.13 112.38 556.672 111.141C555.068 109.828 554.266 108.188 554.266 106.219C554.266 104.906 554.32 102.938 554.43 100.312C554.539 97.6875 554.594 95.7188 554.594 94.4062C554.594 89.9948 554.266 80.5521 553.609 66.0781C551.349 65.9688 547.922 65.6771 543.328 65.2031C538.771 64.6927 536.492 62.3229 536.492 58.0938C536.492 56.0521 537.185 54.3203 538.57 52.8984C539.956 51.4766 541.742 50.7656 543.93 50.7656C545.279 50.7656 548.378 50.9844 553.227 51.4219C553.19 50.2552 553.099 48.3229 552.953 45.625C552.807 43.2917 552.734 41.487 552.734 40.2109C552.734 38.1693 553.482 36.474 554.977 35.125C556.471 33.776 558.276 33.1016 560.391 33.1016C565.786 33.1016 568.484 37.6406 568.484 46.7188L568.375 51.2031C570.635 50.875 572.477 50.7109 573.898 50.7109C578.091 50.7109 580.953 50.9844 582.484 51.5312C585.401 52.5521 586.859 54.776 586.859 58.2031C586.859 60.2812 586.148 62.013 584.727 63.3984C583.305 64.7839 581.5 65.4766 579.312 65.4766Z" fill="#111111"/>
</g>
<defs>
<filter id="filter0_d_82_5" x="0.125" y="0.515625" width="610.734" height="164.648" filterUnits="userSpaceOnUse" color-interpolation-filters="sRGB">
<feFlood flood-opacity="0" result="BackgroundImageFix"/>
<feColorMatrix in="SourceAlpha" type="matrix" values="0 0 0 0 0 0 0 0 0 0 0 0 0 0 0 0 0 0 127 0" result="hardAlpha"/>
<feOffset/>
<feGaussianBlur stdDeviation="12"/>
<feComposite in2="hardAlpha" operator="out"/>
<feColorMatrix type="matrix" values="0 0 0 0 0 0 0 0 0 0 0 0 0 0 0 0 0 0 0.35 0"/>
<feBlend mode="normal" in2="BackgroundImageFix" result="effect1_dropShadow_82_5"/>
<feBlend mode="normal" in="SourceGraphic" in2="effect1_dropShadow_82_5" result="shape"/>
</filter>
</defs>
</svg>
